# xmcd
#
# Track frame offsets:
#	150
#	12570
#	26052
#	40442
#	54630
#	70385
#	84337
#	98605
#	111962
#	125187
#	138590
#	155152
#	171035
#	184635
#	199685
#	210980
#	225662
#	239835
#	253335
#	266612
#	279287
#
# Disc length: 3911 seconds
#
# Revision: 8
# Processed by: cddbd v1.5.2PL0 Copyright (c) Steve Scherf et al.
# Submitted via: EZCDAudioConverter 3.1.5.1
#
DISCID=3a0f4515
DTITLE=Γιώργος Ζαμπετας - Ο πιο καλός μαθητής
DYEAR=1900
DGENRE=greek
TTITLE0=Βίκυ Μοσχολιού - Τα δειλινά
TTITLE1=Σταμάτης Κόκοτας - Ρωμιοός αγάπησε ρωμιά
TTITLE2=Πάνος Τζανετής - Χάθηκες
TTITLE3=Δούκισσα - Η μοντέρνα η Αθήνα
TTITLE4=Γιώργος Ζαμπετας - Μάλιστα κύριε
TTITLE5=Δημήτρης Μητροπάνος - Θεσσαλονίκη
TTITLE6=Μαρινέλλα - Ποιός ειναι αυτός
TTITLE7=Τόλης Βοσκόπουλος - Αγωνία
TTITLE8=Βίκυ Μοσχολιού, Γιώργος Ζαμπέτας - Πάει Πάει
TTITLE9=Μπέμπα Μπλανς - Μιάς πεντάρας Νιάτα
TTITLE10=Γιώργος Ζαμπετας - Ο πενηντάρης
TTITLE11=Πέτρος Αναγνωστάκης - ΄Ηρθα και απόψε στα σκαλοπάτια σου
TTITLE12=Δημήτρης Μητροπάνος - Ο ξενύχτης
TTITLE13=Γιώργος Ζαμπετας - Απόσπασμα απο έρωτες
TTITLE14=Γιώργος Ζαμπετας - Ο Μαθητής
TTITLE15=Σταμάτης Κόκοτας - Το θέμα ειναι να την βρώ
TTITLE16=Βίκυ Μοσχολιού - Ξημερώματα
TTITLE17=Πάνος Τζανετής - Τισ ου έκανα και με εγκατέλειψες
TTITLE18=Τόλης Βοσκόπουλος - Οι ουρανοί
TTITLE19=Στέλιος Καζαντζίδης, Μαρινέλλα - Με το βοριά
TTITLE20=Γιώργος Ζαμπέτας, Ρία Κούρτη - Αν σου σπάσουν το μπουζούκι
EXTD=
EXTT0=
EXTT1=
EXTT2=
EXTT3=
EXTT4=
EXTT5=
EXTT6=
EXTT7=
EXTT8=
EXTT9=
EXTT10=
EXTT11=
EXTT12=
EXTT13=
EXTT14=
EXTT15=
EXTT16=
EXTT17=
EXTT18=
EXTT19=
EXTT20=
PLAYORDER=
